<svg width="32" height="32" viewBox="0 0 32 32" fill="none" xmlns="http://www.w3.org/2000/svg">
  <!-- Hexagonal background -->
  <path d="M8 4.5C6.61929 4.5 5.5 5.61929 5.5 7V25C5.5 26.3807 6.61929 27.5 8 27.5H24C25.3807 27.5 26.5 26.3807 26.5 25V7C26.5 5.61929 25.3807 4.5 24 4.5H8Z" fill="url(#gradient)" stroke="none"/>
  
  <!-- Translation bubble -->
  <rect x="7" y="8" width="12" height="8" rx="3" fill="white" fill-opacity="0.9"/>
  
  <!-- "A文" text inside bubble -->
  <text x="9" y="13.5" font-family="Arial, sans-serif" font-size="4" font-weight="bold" fill="#7C3AED">A</text>
  <text x="13.5" y="13.5" font-family="Arial, sans-serif" font-size="4" font-weight="bold" fill="#7C3AED">文</text>
  
  <!-- Gear icon -->
  <g transform="translate(18, 18)">
    <circle cx="3" cy="3" r="1.5" fill="white"/>
    <path d="M3 0.5C2.72386 0.5 2.5 0.723858 2.5 1V1.17157C2.22386 1.24264 1.96447 1.35088 1.72361 1.48943L1.60355 1.36937C1.41421 1.18003 1.10355 1.18003 0.914214 1.36937C0.724876 1.55871 0.724876 1.86937 0.914214 2.05871L1.03427 2.17877C0.895719 2.41963 0.787476 2.67902 0.716407 2.955H0.5C0.223858 2.955 0 3.17886 0 3.455C0 3.73114 0.223858 3.955 0.5 3.955H0.716407C0.787476 4.23098 0.895719 4.49037 1.03427 4.73123L0.914214 4.85129C0.724876 5.04063 0.724876 5.35129 0.914214 5.54063C1.10355 5.72997 1.41421 5.72997 1.60355 5.54063L1.72361 5.42057C1.96447 5.55912 2.22386 5.66736 2.5 5.73843V5.91C2.5 6.18614 2.72386 6.41 3 6.41C3.27614 6.41 3.5 6.18614 3.5 5.91V5.73843C3.77614 5.66736 4.03553 5.55912 4.27639 5.42057L4.39645 5.54063C4.58579 5.72997 4.89645 5.72997 5.08579 5.54063C5.27513 5.35129 5.27513 5.04063 5.08579 4.85129L4.96573 4.73123C5.10428 4.49037 5.21252 4.23098 5.28359 3.955H5.5C5.77614 3.955 6 3.73114 6 3.455C6 3.17886 5.77614 2.955 5.5 2.955H5.28359C5.21252 2.67902 5.10428 2.41963 4.96573 2.17877L5.08579 2.05871C5.27513 1.86937 5.27513 1.55871 5.08579 1.36937C4.89645 1.18003 4.58579 1.18003 4.39645 1.36937L4.27639 1.48943C4.03553 1.35088 3.77614 1.24264 3.5 1.17157V1C3.5 0.723858 3.27614 0.5 3 0.5Z" fill="#7C3AED"/>
  </g>
  
  <!-- Gradient definition -->
  <defs>
    <linearGradient id="gradient" x1="0%" y1="0%" x2="100%" y2="100%">
      <stop offset="0%" style="stop-color:#8B5CF6;stop-opacity:1" />
      <stop offset="100%" style="stop-color:#7C3AED;stop-opacity:1" />
    </linearGradient>
  </defs>
</svg>